<?xml version="1.0" encoding="iso-8859-1"?>
<!-- Uploaded to: SVG Repo, www.svgrepo.com, Generator: SVG Repo Mixer Tools -->
<svg version="1.1" id="Layer_1" xmlns="http://www.w3.org/2000/svg" xmlns:xlink="http://www.w3.org/1999/xlink" 
	 viewBox="0 0 512 512" xml:space="preserve">
<path style="fill:#C39774;" d="M228.176,255.999L389.52,94.655c-41.292-41.292-98.335-66.831-161.344-66.831
	C102.158,27.825,0,129.982,0,255.999c0,126.389,101.786,228.176,228.176,228.176c122.922,0,223.142-97.2,227.991-218.934
	c0.201-5.036-3.8-9.242-8.839-9.242H228.176z"/>
<circle style="opacity:0.15;enable-background:new    ;" cx="345.757" cy="85.377" r="8.191"/>
<circle style="opacity:0.15;enable-background:new    ;" cx="192.609" cy="49.269" r="8.191"/>
<circle style="opacity:0.15;enable-background:new    ;" cx="73.592" cy="138.84" r="8.191"/>
<circle style="opacity:0.15;enable-background:new    ;" cx="41.166" cy="348.444" r="8.191"/>
<circle style="opacity:0.15;enable-background:new    ;" cx="184.418" cy="440.822" r="8.191"/>
<circle style="opacity:0.15;enable-background:new    ;" cx="327.747" cy="437.546" r="8.191"/>
<circle style="opacity:0.15;enable-background:new    ;" cx="420.103" cy="334.278" r="8.191"/>
<path style="fill:#FDD05F;" d="M43.35,255.999c0,102.076,82.749,184.825,184.825,184.825s184.825-82.749,184.825-184.825H228.176
	l130.691-130.69c-33.446-33.446-79.653-54.134-130.691-54.134C126.1,71.175,43.35,153.923,43.35,255.999z"/>
<path style="opacity:0.1;enable-background:new    ;" d="M228.176,71.175C126.1,71.175,43.35,153.924,43.35,256
	c0,2.486,0.063,4.957,0.161,7.42c3.896-98.634,85.075-177.405,184.664-177.405c47.262,0,90.373,17.748,123.053,46.933l7.638-7.638
	C325.42,91.862,279.213,71.175,228.176,71.175z"/>
<g>
	<path style="fill:#DE2A4E;" d="M310.613,255.999c0,16.392,13.288,29.679,29.679,29.679c16.392,0,29.679-13.288,29.679-29.679
		L310.613,255.999L310.613,255.999z"/>
	<path style="fill:#DE2A4E;" d="M337.258,146.918c-11.59-11.59-30.383-11.59-41.973,0c-11.59,11.59-11.59,30.383,0,41.973
		L337.258,146.918z"/>
	<circle style="fill:#DE2A4E;" cx="249.731" cy="130.649" r="29.675"/>
	<circle style="fill:#DE2A4E;" cx="130.769" cy="167.248" r="29.675"/>
	<circle style="fill:#DE2A4E;" cx="103.267" cy="245.133" r="29.675"/>
	<circle style="fill:#DE2A4E;" cx="204.755" cy="203.913" r="29.675"/>
	<circle style="fill:#DE2A4E;" cx="132.953" cy="336.495" r="29.675"/>
	<circle style="fill:#DE2A4E;" cx="220.056" cy="306.809" r="29.675"/>
	<circle style="fill:#DE2A4E;" cx="233.916" cy="387.304" r="29.675"/>
	<circle style="fill:#DE2A4E;" cx="327.747" cy="336.495" r="29.675"/>
</g>
<circle style="opacity:0.15;enable-background:new    ;" cx="322.177" cy="330.969" r="8.191"/>
<circle style="opacity:0.15;enable-background:new    ;" cx="221.891" cy="311.681" r="8.191"/>
<circle style="opacity:0.15;enable-background:new    ;" cx="335.939" cy="266.78" r="8.191"/>
<circle style="opacity:0.15;enable-background:new    ;" cx="248.279" cy="138.84" r="8.191"/>
<circle style="opacity:0.15;enable-background:new    ;" cx="111.47" cy="241.791" r="8.191"/>
<circle style="opacity:0.15;enable-background:new    ;" cx="127.973" cy="334.278" r="8.191"/>
<path style="opacity:0.1;enable-background:new    ;" d="M379.747,85.46L251.603,213.602h18.969L389.52,94.655
	C386.357,91.492,383.09,88.433,379.747,85.46z"/>
<g>
	<path style="fill:#FDD05F;" d="M342.026,237.964L342.026,237.964c-6.438,0-11.658-5.22-11.658-11.658v-26.131h23.316v26.131
		C353.684,232.744,348.464,237.964,342.026,237.964z"/>
	<path style="fill:#FDD05F;" d="M390.117,229.226L390.117,229.226c-6.439,0-11.658-5.22-11.658-11.658v-17.393h23.316v17.393
		C401.775,224.007,396.556,229.226,390.117,229.226z"/>
</g>
<path style="fill:#C39774;" d="M451.763,45.513c-3.423-3.711-9.229-3.872-12.798-0.303l-24.273,24.273L284,200.175h219.151
	c5.03,0,9.041-4.191,8.841-9.217C509.766,134.915,487.326,84.07,451.763,45.513z"/>
<circle style="opacity:0.15;enable-background:new    ;" cx="464.403" cy="91.089" r="8.191"/>
<path style="fill:#FDD05F;" d="M468.825,200.175c0-51.037-20.687-97.244-54.134-130.691L284,200.175H468.825z"/>
<g>
	<path style="fill:#DE2A4E;" d="M425.797,200.175c0-16.392-13.288-29.679-29.679-29.679c-16.392,0-29.679,13.288-29.679,29.679
		H425.797z"/>
	<path style="fill:#DE2A4E;" d="M351.109,133.066c11.59,11.59,30.383,11.59,41.973,0c11.59-11.59,11.59-30.383,0-41.973
		L351.109,133.066z"/>
</g>
<rect x="330.368" y="200.178" style="opacity:0.1;enable-background:new    ;" width="23.316" height="10.601"/>
<rect x="378.458" y="200.178" style="opacity:0.1;enable-background:new    ;" width="23.316" height="10.601"/>
</svg>